 <svg  version="1.0" xmlns="http://www.w3.org/2000/svg"  width="300.000000pt" height="300.000000pt" viewBox="0 0 300.000000 300.000000"  preserveAspectRatio="xMidYMid meet">  <g transform="translate(0.000000,300.000000) scale(0.100000,-0.100000)" fill="#00e4ff" stroke="none"> <path d="M1346 2940 c-643 -81 -1158 -573 -1267 -1208 -62 -365 22 -751 230 -1060 77 -115 228 -274 341 -357 157 -118 377 -216 580 -260 105 -22 357 -31 472 -16 326 44 610 183 844 416 446 444 558 1115 278 1680 -170 344 -486 619 -848 739 -184 61 -449 89 -630 66z m426 -191 c477 -96 864 -464 983 -933 46 -180 54 -317 30 -498 -50 -385 -261 -711 -601 -930 -197 -127 -467 -196 -719 -185 -200 10 -352 49 -525 138 -337 172 -568 466 -667 848 -25 97 -28 121 -28 296 0 124 5 211 14 250 130 578 578 980 1156 1039 76 8 260 -5 357 -25z"/> <path d="M1645 2520 c-83 -4 -157 -13 -182 -22 -68 -25 -140 -76 -176 -126 -63 -87 -69 -117 -76 -332 l-6 -195 -107 -3 -108 -3 0 -174 0 -175 110 0 110 0 0 -515 0 -515 235 0 235 0 0 515 0 515 160 0 c98 0 160 4 160 10 0 5 9 82 20 171 12 89 18 164 15 168 -4 3 -68 6 -143 7 -76 1 -154 2 -174 3 l-38 1 0 113 c0 189 19 205 233 206 l127 1 -2 178 -3 177 -125 1 c-69 1 -188 -2 -265 -6z"/> </g> </svg> 