 <svg  version="1.0" xmlns="http://www.w3.org/2000/svg"  width="512.000000pt" height="512.000000pt" viewBox="0 0 512.000000 512.000000"  preserveAspectRatio="xMidYMid meet">  <g transform="translate(0.000000,512.000000) scale(0.100000,-0.100000)" fill="#00e4ff" stroke="none"> <path d="M1056 5104 c-273 -42 -509 -165 -703 -365 -190 -197 -297 -413 -338 -684 -22 -149 -22 -2221 0 -2370 41 -271 148 -487 338 -684 197 -203 431 -323 712 -366 149 -22 2221 -22 2370 0 281 43 515 163 712 366 190 197 297 413 338 684 22 149 22 2221 0 2370 -41 271 -148 487 -338 684 -197 203 -431 323 -712 366 -142 21 -2241 21 -2379 -1z m2437 -417 c145 -45 248 -106 355 -211 105 -102 173 -215 219 -363 l28 -88 0 -1155 0 -1155 -28 -88 c-46 -148 -114 -261 -219 -363 -107 -105 -210 -166 -355 -211 l-88 -28 -1155 0 -1155 0 -88 28 c-148 46 -261 114 -363 219 -105 107 -166 210 -211 355 l-28 88 0 1155 0 1155 28 88 c46 148 114 261 219 363 130 127 279 204 455 234 26 4 554 7 1173 6 l1125 -1 88 -28z"/> <path d="M3397 4359 c-57 -13 -108 -43 -148 -86 -62 -65 -74 -97 -74 -198 0 -101 12 -133 74 -198 93 -98 239 -119 357 -51 163 93 190 329 52 461 -63 60 -178 92 -261 72z"/> <path d="M2075 4014 c-248 -38 -458 -145 -641 -328 -187 -188 -290 -391 -328 -649 -20 -129 -20 -203 -1 -332 36 -253 142 -464 329 -651 188 -187 391 -290 649 -328 132 -20 202 -20 334 0 258 38 461 141 649 328 187 188 290 391 328 649 20 129 20 203 1 332 -36 253 -142 464 -329 651 -187 186 -393 290 -649 328 -125 19 -220 19 -342 0z m370 -409 c85 -23 209 -87 282 -145 117 -94 219 -250 260 -400 24 -90 24 -290 0 -380 -58 -212 -206 -392 -402 -489 -120 -60 -189 -75 -335 -75 -146 0 -215 15 -335 75 -154 76 -268 190 -344 344 -51 102 -70 176 -78 295 -23 368 234 702 602 784 86 19 262 15 350 -9z"/> </g> </svg> 