<?xml version="1.0" standalone="no"?>
<!DOCTYPE svg PUBLIC "-//W3C//DTD SVG 20010904//EN"
 "http://www.w3.org/TR/2001/REC-SVG-20010904/DTD/svg10.dtd">
<svg version="1.0" xmlns="http://www.w3.org/2000/svg"
 width="300.000000pt" height="300.000000pt" viewBox="0 0 300.000000 300.000000"
 preserveAspectRatio="xMidYMid meet">
<metadata>
Created by potrace 1.10, written by Peter Selinger 2001-2011
</metadata>
<g transform="translate(0.000000,300.000000) scale(0.100000,-0.100000)"
fill="#00e4ff" stroke="none">
<path d="M710 2730 c-212 -5 -228 -6 -270 -29 -76 -39 -125 -86 -161 -153
l-34 -63 0 -985 0 -985 27 -52 c16 -29 41 -67 58 -86 41 -48 136 -95 206 -105
33 -4 482 -7 999 -6 874 1 944 2 990 19 69 24 130 68 170 123 69 94 65 34 65
1094 0 915 -1 960 -19 1008 -36 96 -117 172 -217 205 -44 14 -140 16 -819 18
-424 1 -871 0 -995 -3z m339 -509 c155 -79 155 -285 1 -364 -70 -36 -139 -33
-208 10 -136 84 -119 293 28 357 50 22 133 20 179 -3z m999 -481 c33 -14 70
-42 101 -76 91 -99 110 -207 111 -619 0 -202 -3 -244 -16 -263 -14 -21 -22
-22 -159 -22 -104 0 -146 3 -152 13 -4 6 -10 145 -13 307 -5 287 -6 296 -28
336 -31 53 -68 74 -132 74 -91 0 -137 -41 -165 -146 -11 -45 -15 -117 -15
-309 0 -182 -3 -254 -12 -263 -17 -17 -279 -17 -296 0 -9 9 -12 130 -12 484
l0 473 22 15 c17 12 50 16 138 16 142 0 160 -9 160 -77 l0 -46 19 25 c31 39
91 76 151 93 81 22 229 15 298 -15z m-942 -4 c12 -16 14 -99 14 -482 0 -407
-2 -464 -16 -478 -23 -24 -269 -23 -296 1 -17 15 -18 43 -18 478 0 476 1 483
40 498 8 4 70 5 138 4 109 -2 125 -4 138 -21z"/>
</g>
</svg>
